<mxfile host="app.diagrams.net" modified="2024-05-05T13:01:06.768Z" agent="Mozilla/5.0 (Windows NT 10.0; Win64; x64) AppleWebKit/537.36 (KHTML, like Gecko) Chrome/124.0.0.0 Safari/537.36 Edg/124.0.0.0" etag="0KFKJ5PeFpUwvbKxaYks" version="24.3.1" type="github">
  <diagram name="第 1 页" id="xx-fUKgQVGqsyc7XwQPO">
    <mxGraphModel dx="973" dy="700" grid="1" gridSize="10" guides="1" tooltips="1" connect="1" arrows="1" fold="1" page="1" pageScale="1" pageWidth="827" pageHeight="1169" math="0" shadow="0">
      <root>
        <mxCell id="0" />
        <mxCell id="1" parent="0" />
        <mxCell id="zIxQJg02RTwEDSs-chEC-2" value="" style="rounded=1;whiteSpace=wrap;html=1;fillColor=none;strokeWidth=5;dashed=1;dashPattern=1 1;" vertex="1" parent="1">
          <mxGeometry x="30" y="190" width="870" height="130" as="geometry" />
        </mxCell>
        <mxCell id="zIxQJg02RTwEDSs-chEC-3" value="数据层" style="text;html=1;align=center;verticalAlign=middle;whiteSpace=wrap;rounded=0;fontFamily=宋体;fontSize=33;" vertex="1" parent="1">
          <mxGeometry x="40" y="210" width="120" height="20" as="geometry" />
        </mxCell>
        <mxCell id="zIxQJg02RTwEDSs-chEC-11" style="edgeStyle=orthogonalEdgeStyle;rounded=0;orthogonalLoop=1;jettySize=auto;html=1;entryX=0.5;entryY=0;entryDx=0;entryDy=0;" edge="1" parent="1" source="zIxQJg02RTwEDSs-chEC-6" target="zIxQJg02RTwEDSs-chEC-7">
          <mxGeometry relative="1" as="geometry" />
        </mxCell>
        <mxCell id="zIxQJg02RTwEDSs-chEC-6" value="&lt;font style=&quot;font-size: 28px;&quot;&gt;IDE/API&lt;/font&gt;" style="rounded=0;whiteSpace=wrap;html=1;fillColor=none;strokeWidth=2.5;fontFamily=Times New Roman;fontSize=33;" vertex="1" parent="1">
          <mxGeometry x="170" y="60" width="220" height="50" as="geometry" />
        </mxCell>
        <mxCell id="zIxQJg02RTwEDSs-chEC-12" style="edgeStyle=orthogonalEdgeStyle;rounded=0;orthogonalLoop=1;jettySize=auto;html=1;entryX=0;entryY=0.5;entryDx=0;entryDy=0;" edge="1" parent="1" source="zIxQJg02RTwEDSs-chEC-7" target="zIxQJg02RTwEDSs-chEC-8">
          <mxGeometry relative="1" as="geometry" />
        </mxCell>
        <mxCell id="zIxQJg02RTwEDSs-chEC-7" value="&lt;span style=&quot;font-size: 28px;&quot;&gt;Java、C++分析&lt;/span&gt;" style="rounded=0;whiteSpace=wrap;html=1;fillColor=none;strokeWidth=2.5;fontFamily=Times New Roman;fontSize=33;" vertex="1" parent="1">
          <mxGeometry x="170" y="230" width="220" height="50" as="geometry" />
        </mxCell>
        <mxCell id="zIxQJg02RTwEDSs-chEC-13" style="edgeStyle=orthogonalEdgeStyle;rounded=0;orthogonalLoop=1;jettySize=auto;html=1;entryX=0;entryY=0.5;entryDx=0;entryDy=0;exitX=1;exitY=0.5;exitDx=0;exitDy=0;" edge="1" parent="1" source="zIxQJg02RTwEDSs-chEC-8" target="zIxQJg02RTwEDSs-chEC-9">
          <mxGeometry relative="1" as="geometry">
            <mxPoint x="810" y="255" as="sourcePoint" />
          </mxGeometry>
        </mxCell>
        <mxCell id="zIxQJg02RTwEDSs-chEC-38" style="edgeStyle=orthogonalEdgeStyle;rounded=0;orthogonalLoop=1;jettySize=auto;html=1;entryX=0.5;entryY=0;entryDx=0;entryDy=0;" edge="1" parent="1" source="zIxQJg02RTwEDSs-chEC-8" target="zIxQJg02RTwEDSs-chEC-21">
          <mxGeometry relative="1" as="geometry" />
        </mxCell>
        <mxCell id="zIxQJg02RTwEDSs-chEC-8" value="&lt;span style=&quot;font-size: 28px;&quot;&gt;标准化格式数据&lt;/span&gt;" style="rounded=0;whiteSpace=wrap;html=1;fillColor=none;strokeWidth=2.5;fontFamily=Times New Roman;fontSize=33;" vertex="1" parent="1">
          <mxGeometry x="580" y="230" width="220" height="50" as="geometry" />
        </mxCell>
        <mxCell id="zIxQJg02RTwEDSs-chEC-9" value="" style="rounded=1;whiteSpace=wrap;html=1;fillColor=none;strokeWidth=5;dashed=1;dashPattern=1 1;" vertex="1" parent="1">
          <mxGeometry x="970" y="190" width="140" height="130" as="geometry" />
        </mxCell>
        <mxCell id="zIxQJg02RTwEDSs-chEC-10" value="数据库" style="text;html=1;align=center;verticalAlign=middle;whiteSpace=wrap;rounded=0;fontFamily=宋体;fontSize=33;" vertex="1" parent="1">
          <mxGeometry x="980" y="245" width="120" height="20" as="geometry" />
        </mxCell>
        <mxCell id="zIxQJg02RTwEDSs-chEC-14" value="源代码提交" style="text;html=1;align=center;verticalAlign=middle;whiteSpace=wrap;rounded=0;fontFamily=宋体;fontSize=28;labelBackgroundColor=default;" vertex="1" parent="1">
          <mxGeometry x="195" y="150" width="170" height="20" as="geometry" />
        </mxCell>
        <mxCell id="zIxQJg02RTwEDSs-chEC-15" value="解析转化" style="text;html=1;align=center;verticalAlign=middle;whiteSpace=wrap;rounded=0;fontFamily=宋体;fontSize=28;" vertex="1" parent="1">
          <mxGeometry x="400" y="225" width="170" height="20" as="geometry" />
        </mxCell>
        <mxCell id="zIxQJg02RTwEDSs-chEC-17" value="存储" style="text;html=1;align=center;verticalAlign=middle;whiteSpace=wrap;rounded=0;fontFamily=宋体;fontSize=28;labelBackgroundColor=default;" vertex="1" parent="1">
          <mxGeometry x="800" y="225" width="170" height="20" as="geometry" />
        </mxCell>
        <mxCell id="zIxQJg02RTwEDSs-chEC-18" value="附加元数据" style="text;html=1;align=center;verticalAlign=middle;whiteSpace=wrap;rounded=0;fontFamily=宋体;fontSize=28;labelBackgroundColor=default;" vertex="1" parent="1">
          <mxGeometry x="800" y="265" width="170" height="20" as="geometry" />
        </mxCell>
        <mxCell id="zIxQJg02RTwEDSs-chEC-37" value="" style="rounded=1;whiteSpace=wrap;html=1;fillColor=none;strokeWidth=5;dashed=1;dashPattern=1 1;" vertex="1" parent="1">
          <mxGeometry x="30" y="620" width="870" height="280" as="geometry" />
        </mxCell>
        <mxCell id="zIxQJg02RTwEDSs-chEC-39" value="" style="group" vertex="1" connectable="0" parent="1">
          <mxGeometry x="30" y="330" width="870" height="280" as="geometry" />
        </mxCell>
        <mxCell id="zIxQJg02RTwEDSs-chEC-19" value="" style="rounded=1;whiteSpace=wrap;html=1;fillColor=none;strokeWidth=5;dashed=1;dashPattern=1 1;" vertex="1" parent="zIxQJg02RTwEDSs-chEC-39">
          <mxGeometry width="870" height="280" as="geometry" />
        </mxCell>
        <mxCell id="zIxQJg02RTwEDSs-chEC-20" value="逻辑处理层" style="text;html=1;align=center;verticalAlign=middle;whiteSpace=wrap;rounded=0;fontFamily=宋体;fontSize=33;" vertex="1" parent="zIxQJg02RTwEDSs-chEC-39">
          <mxGeometry x="10" y="30" width="170" height="20" as="geometry" />
        </mxCell>
        <mxCell id="zIxQJg02RTwEDSs-chEC-28" style="edgeStyle=orthogonalEdgeStyle;rounded=0;orthogonalLoop=1;jettySize=auto;html=1;entryX=1;entryY=0.5;entryDx=0;entryDy=0;" edge="1" parent="zIxQJg02RTwEDSs-chEC-39" source="zIxQJg02RTwEDSs-chEC-21" target="zIxQJg02RTwEDSs-chEC-22">
          <mxGeometry relative="1" as="geometry" />
        </mxCell>
        <mxCell id="zIxQJg02RTwEDSs-chEC-21" value="&lt;span style=&quot;font-size: 28px;&quot;&gt;ML模型&lt;/span&gt;" style="rounded=0;whiteSpace=wrap;html=1;fillColor=none;strokeWidth=2.5;fontFamily=Times New Roman;fontSize=33;" vertex="1" parent="zIxQJg02RTwEDSs-chEC-39">
          <mxGeometry x="550" y="15" width="220" height="50" as="geometry" />
        </mxCell>
        <mxCell id="zIxQJg02RTwEDSs-chEC-29" style="edgeStyle=orthogonalEdgeStyle;rounded=0;orthogonalLoop=1;jettySize=auto;html=1;entryX=0.5;entryY=0;entryDx=0;entryDy=0;" edge="1" parent="zIxQJg02RTwEDSs-chEC-39" source="zIxQJg02RTwEDSs-chEC-22" target="zIxQJg02RTwEDSs-chEC-23">
          <mxGeometry relative="1" as="geometry" />
        </mxCell>
        <mxCell id="zIxQJg02RTwEDSs-chEC-22" value="&lt;span style=&quot;font-size: 28px;&quot;&gt;漏洞建模&lt;/span&gt;" style="rounded=0;whiteSpace=wrap;html=1;fillColor=none;strokeWidth=2.5;fontFamily=Times New Roman;fontSize=33;" vertex="1" parent="zIxQJg02RTwEDSs-chEC-39">
          <mxGeometry x="210" y="15" width="220" height="50" as="geometry" />
        </mxCell>
        <mxCell id="zIxQJg02RTwEDSs-chEC-30" style="edgeStyle=orthogonalEdgeStyle;rounded=0;orthogonalLoop=1;jettySize=auto;html=1;entryX=0;entryY=0.5;entryDx=0;entryDy=0;" edge="1" parent="zIxQJg02RTwEDSs-chEC-39" source="zIxQJg02RTwEDSs-chEC-23" target="zIxQJg02RTwEDSs-chEC-24">
          <mxGeometry relative="1" as="geometry" />
        </mxCell>
        <mxCell id="zIxQJg02RTwEDSs-chEC-23" value="&lt;span style=&quot;font-size: 28px;&quot;&gt;漏洞分析&lt;/span&gt;" style="rounded=0;whiteSpace=wrap;html=1;fillColor=none;strokeWidth=2.5;fontFamily=Times New Roman;fontSize=33;" vertex="1" parent="zIxQJg02RTwEDSs-chEC-39">
          <mxGeometry x="20" y="120" width="220" height="50" as="geometry" />
        </mxCell>
        <mxCell id="zIxQJg02RTwEDSs-chEC-31" value="" style="edgeStyle=orthogonalEdgeStyle;rounded=0;orthogonalLoop=1;jettySize=auto;html=1;" edge="1" parent="zIxQJg02RTwEDSs-chEC-39" source="zIxQJg02RTwEDSs-chEC-24" target="zIxQJg02RTwEDSs-chEC-25">
          <mxGeometry relative="1" as="geometry" />
        </mxCell>
        <mxCell id="zIxQJg02RTwEDSs-chEC-24" value="&lt;span style=&quot;font-size: 28px;&quot;&gt;漏洞测试&lt;/span&gt;" style="rounded=0;whiteSpace=wrap;html=1;fillColor=none;strokeWidth=2.5;fontFamily=Times New Roman;fontSize=33;" vertex="1" parent="zIxQJg02RTwEDSs-chEC-39">
          <mxGeometry x="320" y="120" width="220" height="50" as="geometry" />
        </mxCell>
        <mxCell id="zIxQJg02RTwEDSs-chEC-32" style="edgeStyle=orthogonalEdgeStyle;rounded=0;orthogonalLoop=1;jettySize=auto;html=1;entryX=1;entryY=0.5;entryDx=0;entryDy=0;" edge="1" parent="zIxQJg02RTwEDSs-chEC-39" source="zIxQJg02RTwEDSs-chEC-25" target="zIxQJg02RTwEDSs-chEC-26">
          <mxGeometry relative="1" as="geometry" />
        </mxCell>
        <mxCell id="zIxQJg02RTwEDSs-chEC-25" value="&lt;span style=&quot;font-size: 28px;&quot;&gt;漏洞报告&lt;/span&gt;" style="rounded=0;whiteSpace=wrap;html=1;fillColor=none;strokeWidth=2.5;fontFamily=Times New Roman;fontSize=33;" vertex="1" parent="zIxQJg02RTwEDSs-chEC-39">
          <mxGeometry x="620" y="120" width="220" height="50" as="geometry" />
        </mxCell>
        <mxCell id="zIxQJg02RTwEDSs-chEC-33" style="edgeStyle=orthogonalEdgeStyle;rounded=0;orthogonalLoop=1;jettySize=auto;html=1;entryX=1;entryY=0.5;entryDx=0;entryDy=0;" edge="1" parent="zIxQJg02RTwEDSs-chEC-39" source="zIxQJg02RTwEDSs-chEC-26" target="zIxQJg02RTwEDSs-chEC-27">
          <mxGeometry relative="1" as="geometry" />
        </mxCell>
        <mxCell id="zIxQJg02RTwEDSs-chEC-26" value="&lt;span style=&quot;font-size: 28px;&quot;&gt;漏洞验证&lt;/span&gt;" style="rounded=0;whiteSpace=wrap;html=1;fillColor=none;strokeWidth=2.5;fontFamily=Times New Roman;fontSize=33;" vertex="1" parent="zIxQJg02RTwEDSs-chEC-39">
          <mxGeometry x="470" y="215" width="220" height="50" as="geometry" />
        </mxCell>
        <mxCell id="zIxQJg02RTwEDSs-chEC-27" value="&lt;span style=&quot;font-size: 28px;&quot;&gt;自动化修复策略&lt;/span&gt;" style="rounded=0;whiteSpace=wrap;html=1;fillColor=none;strokeWidth=2.5;fontFamily=Times New Roman;fontSize=33;" vertex="1" parent="zIxQJg02RTwEDSs-chEC-39">
          <mxGeometry x="170" y="215" width="220" height="50" as="geometry" />
        </mxCell>
        <mxCell id="zIxQJg02RTwEDSs-chEC-34" value="解析" style="text;html=1;align=center;verticalAlign=middle;whiteSpace=wrap;rounded=0;fontFamily=宋体;fontSize=28;" vertex="1" parent="zIxQJg02RTwEDSs-chEC-39">
          <mxGeometry x="410" y="52" width="170" height="20" as="geometry" />
        </mxCell>
        <mxCell id="zIxQJg02RTwEDSs-chEC-36" style="edgeStyle=orthogonalEdgeStyle;rounded=0;orthogonalLoop=1;jettySize=auto;html=1;exitX=0.5;exitY=1;exitDx=0;exitDy=0;" edge="1" parent="zIxQJg02RTwEDSs-chEC-39" source="zIxQJg02RTwEDSs-chEC-19" target="zIxQJg02RTwEDSs-chEC-19">
          <mxGeometry relative="1" as="geometry" />
        </mxCell>
        <mxCell id="zIxQJg02RTwEDSs-chEC-41" value="表现层" style="text;html=1;align=center;verticalAlign=middle;whiteSpace=wrap;rounded=0;fontFamily=宋体;fontSize=33;" vertex="1" parent="1">
          <mxGeometry x="40" y="640" width="120" height="20" as="geometry" />
        </mxCell>
        <mxCell id="zIxQJg02RTwEDSs-chEC-42" value="&lt;span style=&quot;font-size: 28px;&quot;&gt;漏洞检测报告&lt;/span&gt;" style="rounded=0;whiteSpace=wrap;html=1;fillColor=none;strokeWidth=2.5;fontFamily=Times New Roman;fontSize=33;" vertex="1" parent="1">
          <mxGeometry x="630" y="760" width="220" height="50" as="geometry" />
        </mxCell>
        <mxCell id="zIxQJg02RTwEDSs-chEC-43" value="&lt;span style=&quot;font-size: 28px;&quot;&gt;漏洞验证代码&lt;/span&gt;" style="rounded=0;whiteSpace=wrap;html=1;fillColor=none;strokeWidth=2.5;fontFamily=Times New Roman;fontSize=33;" vertex="1" parent="1">
          <mxGeometry x="360" y="760" width="220" height="50" as="geometry" />
        </mxCell>
        <mxCell id="zIxQJg02RTwEDSs-chEC-44" value="&lt;span style=&quot;font-size: 28px;&quot;&gt;代码修复建议&lt;/span&gt;" style="rounded=0;whiteSpace=wrap;html=1;fillColor=none;strokeWidth=2.5;fontFamily=Times New Roman;fontSize=33;" vertex="1" parent="1">
          <mxGeometry x="90" y="760" width="220" height="50" as="geometry" />
        </mxCell>
        <mxCell id="zIxQJg02RTwEDSs-chEC-47" style="edgeStyle=orthogonalEdgeStyle;rounded=0;orthogonalLoop=1;jettySize=auto;html=1;exitX=0;exitY=0.75;exitDx=0;exitDy=0;entryX=1;entryY=0.75;entryDx=0;entryDy=0;strokeWidth=5;endArrow=none;endFill=0;dashed=1;dashPattern=1 1;" edge="1" parent="1" source="zIxQJg02RTwEDSs-chEC-37" target="zIxQJg02RTwEDSs-chEC-37">
          <mxGeometry relative="1" as="geometry">
            <Array as="points">
              <mxPoint x="465" y="830" />
              <mxPoint x="465" y="830" />
            </Array>
          </mxGeometry>
        </mxCell>
        <mxCell id="zIxQJg02RTwEDSs-chEC-48" style="edgeStyle=orthogonalEdgeStyle;rounded=0;orthogonalLoop=1;jettySize=auto;html=1;entryX=0.5;entryY=1;entryDx=0;entryDy=0;strokeWidth=5;endArrow=none;endFill=0;dashed=1;dashPattern=1 1;" edge="1" parent="1" target="zIxQJg02RTwEDSs-chEC-37">
          <mxGeometry relative="1" as="geometry">
            <mxPoint x="465" y="830" as="sourcePoint" />
            <mxPoint x="910" y="840" as="targetPoint" />
            <Array as="points">
              <mxPoint x="465" y="870" />
              <mxPoint x="465" y="870" />
            </Array>
          </mxGeometry>
        </mxCell>
        <mxCell id="zIxQJg02RTwEDSs-chEC-49" value="&lt;span style=&quot;font-size: 28px;&quot;&gt;可交互&lt;/span&gt;" style="rounded=0;whiteSpace=wrap;html=1;fillColor=none;strokeWidth=2.5;fontFamily=Times New Roman;fontSize=33;strokeColor=none;" vertex="1" parent="1">
          <mxGeometry x="130" y="840" width="220" height="50" as="geometry" />
        </mxCell>
        <mxCell id="zIxQJg02RTwEDSs-chEC-50" value="&lt;span style=&quot;font-size: 28px;&quot;&gt;支持直接修改生成的代码&lt;/span&gt;" style="rounded=0;whiteSpace=wrap;html=1;fillColor=none;strokeWidth=2.5;fontFamily=Times New Roman;fontSize=33;strokeColor=none;" vertex="1" parent="1">
          <mxGeometry x="530" y="840" width="320" height="50" as="geometry" />
        </mxCell>
        <mxCell id="zIxQJg02RTwEDSs-chEC-51" value="" style="shape=curlyBracket;whiteSpace=wrap;html=1;rounded=1;flipH=1;labelPosition=right;verticalLabelPosition=middle;align=left;verticalAlign=middle;strokeWidth=5;" vertex="1" parent="1">
          <mxGeometry x="920" y="710" width="20" height="170" as="geometry" />
        </mxCell>
        <mxCell id="zIxQJg02RTwEDSs-chEC-53" style="edgeStyle=orthogonalEdgeStyle;rounded=0;orthogonalLoop=1;jettySize=auto;html=1;entryX=1;entryY=0.5;entryDx=0;entryDy=0;" edge="1" parent="1" source="zIxQJg02RTwEDSs-chEC-52" target="zIxQJg02RTwEDSs-chEC-21">
          <mxGeometry relative="1" as="geometry">
            <Array as="points">
              <mxPoint x="1060" y="370" />
            </Array>
          </mxGeometry>
        </mxCell>
        <mxCell id="zIxQJg02RTwEDSs-chEC-52" value="&lt;span style=&quot;font-size: 28px;&quot;&gt;反馈学习参数给上一层模型&lt;/span&gt;" style="rounded=0;whiteSpace=wrap;html=1;fillColor=none;strokeWidth=2.5;fontFamily=Times New Roman;fontSize=33;" vertex="1" parent="1">
          <mxGeometry x="950" y="752.5" width="220" height="85" as="geometry" />
        </mxCell>
        <mxCell id="zIxQJg02RTwEDSs-chEC-55" value="前后向&lt;br&gt;反馈学习" style="text;html=1;align=center;verticalAlign=middle;whiteSpace=wrap;rounded=0;fontFamily=宋体;fontSize=33;fillColor=default;" vertex="1" parent="1">
          <mxGeometry x="990" y="490" width="140" height="80" as="geometry" />
        </mxCell>
        <mxCell id="zIxQJg02RTwEDSs-chEC-57" style="edgeStyle=orthogonalEdgeStyle;rounded=0;orthogonalLoop=1;jettySize=auto;html=1;exitX=0.75;exitY=1;exitDx=0;exitDy=0;" edge="1" parent="1" source="zIxQJg02RTwEDSs-chEC-25">
          <mxGeometry relative="1" as="geometry">
            <mxPoint x="740" y="680" as="targetPoint" />
            <Array as="points">
              <mxPoint x="815" y="640" />
              <mxPoint x="740" y="640" />
            </Array>
          </mxGeometry>
        </mxCell>
        <mxCell id="zIxQJg02RTwEDSs-chEC-58" style="edgeStyle=orthogonalEdgeStyle;rounded=0;orthogonalLoop=1;jettySize=auto;html=1;" edge="1" parent="1" source="zIxQJg02RTwEDSs-chEC-26">
          <mxGeometry relative="1" as="geometry">
            <mxPoint x="470" y="678" as="targetPoint" />
            <Array as="points">
              <mxPoint x="610" y="640" />
              <mxPoint x="470" y="640" />
            </Array>
          </mxGeometry>
        </mxCell>
        <mxCell id="zIxQJg02RTwEDSs-chEC-59" style="edgeStyle=orthogonalEdgeStyle;rounded=0;orthogonalLoop=1;jettySize=auto;html=1;" edge="1" parent="1" source="zIxQJg02RTwEDSs-chEC-27">
          <mxGeometry relative="1" as="geometry">
            <mxPoint x="210" y="680" as="targetPoint" />
          </mxGeometry>
        </mxCell>
        <mxCell id="zIxQJg02RTwEDSs-chEC-62" style="edgeStyle=orthogonalEdgeStyle;rounded=0;orthogonalLoop=1;jettySize=auto;html=1;exitX=0;exitY=0.75;exitDx=0;exitDy=0;entryX=1;entryY=0.75;entryDx=0;entryDy=0;strokeWidth=5;endArrow=none;endFill=0;dashed=1;dashPattern=1 1;" edge="1" parent="1">
          <mxGeometry relative="1" as="geometry">
            <mxPoint x="30" y="680" as="sourcePoint" />
            <mxPoint x="900" y="680" as="targetPoint" />
            <Array as="points">
              <mxPoint x="465" y="680" />
              <mxPoint x="465" y="680" />
            </Array>
          </mxGeometry>
        </mxCell>
        <mxCell id="zIxQJg02RTwEDSs-chEC-63" style="edgeStyle=orthogonalEdgeStyle;rounded=0;orthogonalLoop=1;jettySize=auto;html=1;exitX=0;exitY=0.75;exitDx=0;exitDy=0;entryX=1;entryY=0.75;entryDx=0;entryDy=0;strokeWidth=5;endArrow=none;endFill=0;dashed=1;dashPattern=1 1;" edge="1" parent="1">
          <mxGeometry relative="1" as="geometry">
            <mxPoint x="35" y="740" as="sourcePoint" />
            <mxPoint x="905" y="740" as="targetPoint" />
            <Array as="points">
              <mxPoint x="470" y="740" />
              <mxPoint x="470" y="740" />
            </Array>
          </mxGeometry>
        </mxCell>
        <mxCell id="zIxQJg02RTwEDSs-chEC-64" value="&lt;span style=&quot;font-size: 28px;&quot;&gt;可视化中间件&lt;/span&gt;" style="rounded=0;whiteSpace=wrap;html=1;fillColor=none;strokeWidth=2.5;fontFamily=Times New Roman;fontSize=33;strokeColor=none;" vertex="1" parent="1">
          <mxGeometry x="355" y="690" width="220" height="50" as="geometry" />
        </mxCell>
      </root>
    </mxGraphModel>
  </diagram>
</mxfile>
